inDegrees=no
num_controls=7
num_derivatives=13
num_iterations=45
num_multipliers=7
num_parameters=0
num_slacks=7
num_states=26
objective=0.398613
objective_accelerations=0.061471
objective_balance=0.002971
objective_effort=0.028484
objective_height=0.299851
objective_ligament=0.005836
solver_duration=679.006321
status=Solve_Succeeded
success=true
DataType=double
version=3
OpenSimVersion=4.5
endheader
time	/jointset/ground_pelvis/pelvis_tilt/value	/jointset/ground_pelvis/pelvis_tx/value	/jointset/ground_pelvis/pelvis_ty/value	/jointset/hip_l/hip_flexion_l/value	/jointset/hip_l/hip_adduction_l/value	/jointset/hip_l/hip_rotation_l/value	/jointset/back/lumbar_extension/value	/jointset/patellofemoral_l/patellar_flexion_l/value	/jointset/knee_l/knee_flexion_l/value	/jointset/knee_l/knee_adduction_l/value	/jointset/knee_l/knee_rotation_l/value	/jointset/ankle_l/ankle_angle_l/value	/jointset/subtalar_l/subtalar_angle_l/value	/jointset/ground_pelvis/pelvis_tilt/speed	/jointset/ground_pelvis/pelvis_tx/speed	/jointset/ground_pelvis/pelvis_ty/speed	/jointset/hip_l/hip_flexion_l/speed	/jointset/hip_l/hip_adduction_l/speed	/jointset/hip_l/hip_rotation_l/speed	/jointset/back/lumbar_extension/speed	/jointset/patellofemoral_l/patellar_flexion_l/speed	/jointset/knee_l/knee_flexion_l/speed	/jointset/knee_l/knee_adduction_l/speed	/jointset/knee_l/knee_rotation_l/speed	/jointset/ankle_l/ankle_angle_l/speed	/jointset/subtalar_l/subtalar_angle_l/speed	/forceset/tau_hip_flexion_l	/forceset/tau_hip_adduction_l	/forceset/tau_hip_rotation_l	/forceset/tau_knee_flexion_l	/forceset/tau_ankle_angle_l	/forceset/tau_subtalar_angle_l	/forceset/tau_lumbar_extension	lambda_cid13_p0	lambda_cid13_p1	lambda_cid13_p2	lambda_cid13_p3	lambda_cid13_p4	lambda_cid13_p5	lambda_cid14_p0	/jointset/ground_pelvis/pelvis_tilt/accel	/jointset/ground_pelvis/pelvis_tx/accel	/jointset/ground_pelvis/pelvis_ty/accel	/jointset/hip_l/hip_flexion_l/accel	/jointset/hip_l/hip_adduction_l/accel	/jointset/hip_l/hip_rotation_l/accel	/jointset/back/lumbar_extension/accel	/jointset/patellofemoral_l/patellar_flexion_l/accel	/jointset/knee_l/knee_flexion_l/accel	/jointset/knee_l/knee_adduction_l/accel	/jointset/knee_l/knee_rotation_l/accel	/jointset/ankle_l/ankle_angle_l/accel	/jointset/subtalar_l/subtalar_angle_l/accel	gamma_cid13_p0	gamma_cid13_p1	gamma_cid13_p2	gamma_cid13_p3	gamma_cid13_p4	gamma_cid13_p5	gamma_cid14_p0
0	-0.04154980358199008	0.06980965964742374	0.8960333139818221	0.1955287580552426	-0.3211362915757644	-0.5005653234799949	-0.1379045077516729	0.07015288079091149	0.07015288079084844	-0.1745268432287563	-0.134174877786735	-0.06701059314715049	0.004949292143240921	0	0	0	0	0	0	0	0	0	0	0	0	0	0.1231595121793193	-0.08401853960933287	-0.03687680827998053	-0.2589807966825086	0.2530250195866597	-0.05102669622760143	-0.06812253470206039	45.28453334225906	9.963991330313002	2.950528713951672	-16.79996595380275	-500.1951358729443	-52.98331042220142	-40.36224924690819	-2.520713478761908	-1.999212269482869	-1.072271725869485	16.05644720013352	-1.871525420394525	4.738546816050386	-6.251742664981609	18.80029238126017	18.80029238125981	6.08365496350209	-2.490211644482791	7.121100880409166	1.819892393097761	7.181552546550242e-07	2.553889840951117e-06	-3.850512612419758e-06	2.791181229530058e-07	1.226342223937174e-06	3.67324422244812e-06	6.033624418324093e-07
0.01	-0.04168211719483886	0.06971130592337413	0.8959794149555559	0.1963125514010382	-0.3212392240719265	-0.5003157977043966	-0.1381983506727381	0.07105945348887331	0.07105945348902283	-0.1742597799284497	-0.1342757935738272	-0.06667306005000234	0.005019884149809149	-0.02823688132012151	-0.01956015013000769	-0.01098599338447206	0.1569515729142489	-0.02166138448856648	0.05057315247079155	-0.05568773939155195	0.1794681945960261	0.1794681945960157	0.05005718838514239	-0.01891441576800433	0.06620241383207194	0.01223365270480327	0.112525079457377	-0.08694111634768602	-0.03428399412170277	-0.2429630847761794	0.2257003270033172	-0.03913173527588276	-0.05878542011585471	36.90720078202968	6.299697529601929	3.494879332961654	-11.56517042799131	-500.9429645806006	-61.12777429103194	-40.38018989603918	-3.241292056074063	-1.917771358781384	-1.142446096066138	15.54346822493739	-2.474465077326665	5.317630790145273	-4.765162852990388	17.24301057621638	17.24301057621635	3.963307012545877	-1.402497398523454	6.174227236401405	0.6424356893428578	8.762053899137856e-08	9.596336876432807e-07	-7.632547875873017e-07	2.021831491339278e-07	-1.956823122747039e-07	8.421239850727504e-07	1.700655639921432e-07
0.02	-0.04215002294044588	0.06942067970322019	0.8958095194051693	0.1986716516530683	-0.3215909744358759	-0.4995403541385905	-0.1389566456432531	0.07370529364839325	0.07370529364840481	-0.173592833497181	-0.1345279416895853	-0.06571261969421721	0.005156279479458395	-0.06711842653791888	-0.0384544992208635	-0.02319930482414015	0.315061381342988	-0.04976357354701811	0.1051835580436974	-0.09289040985319624	0.3478534922897909	0.3478534922898058	0.07997662623151215	-0.03024646575862478	0.1245814517359464	0.01316066461651337	0.1018906467308119	-0.08986369308458687	-0.03169117996607122	-0.2269453728706518	0.1983756344201975	-0.02723677432244379	-0.04944830553449728	28.6560168974548	2.621696716318074	4.031841518319894	-6.650857504335553	-499.8694856348458	-68.92982282553722	-40.43193330715523	-4.649646258297595	-1.866052061652361	-1.317735336908738	16.28809430303217	-3.159686334371623	5.545997436473347	-2.554728879001041	16.58371300080825	16.58371300081506	2.056104855747708	-0.9737384890059761	5.55642569476997	-0.4414357655207755	-5.429141766722671e-07	-6.346224656645561e-07	2.324003037245155e-06	1.252481753148498e-07	-1.617706848486582e-06	-1.988996252302619e-06	-2.632313138481228e-07
0.03	-0.04303772882815924	0.06894295432810124	0.8955133547197973	0.202613680576201	-0.3222383434868956	-0.4982108643340984	-0.1400269445050379	0.07799651654913897	0.07799651654893063	-0.1726810464338307	-0.134871993516453	-0.06419400925865175	0.005271971957934728	-0.109935038161932	-0.05712562499330878	-0.03602532564176859	0.4730442527181543	-0.07898602576926768	0.1604259548496719	-0.1213644887198387	0.5100833244944696	0.5100833244945158	0.103697184145712	-0.03863157494918379	0.1791413177794929	0.01076382085856256	0.09488372359151216	-0.0786826268211441	-0.02997401638362037	-0.2160944990764631	0.1847597348565063	-0.0287522537229697	-0.04433873419405902	24.28927377836404	3.789141869149157	4.137345495174279	-3.490269544573843	-499.0896659190434	-65.67458536702691	-40.51338817750108	-4.024534253714225	-1.872875474306941	-1.264118749941941	15.50831411268226	-2.695129005572562	5.469682657138748	-3.02301632638292	15.99650822727492	15.99650822727512	2.727704115677986	-0.7806364559757636	5.405850803579022	-0.02108041994438958	-3.454569239375162e-07	1.807445888262816e-07	1.385010437695452e-06	2.62674987598745e-07	-1.587328759845348e-06	-1.142424645391904e-06	-5.809561667042886e-08
0.04	-0.04433897395999147	0.06827747116740722	0.8950891131670909	0.2081265243248523	-0.3231562579280072	-0.4963376861906862	-0.1413878379426321	0.08390081575107218	0.08390081575107804	-0.1714925192202954	-0.1353018443000336	-0.06212978341375783	0.005387241651028678	-0.1498262753562169	-0.07600605633587773	-0.04881467829107539	0.6292243464104302	-0.1038726515682677	0.2139212258347836	-0.1510093250221079	0.6704687525782531	0.6704687525782826	0.1353246563167579	-0.04740625701550855	0.2337045336002958	0.01307610754009282	0.08787680045421306	-0.06750156055797543	-0.02825685279816087	-0.205243625282233	0.1711438352927795	-0.03026773312384618	-0.03922916285173419	20.03701909472221	4.950357236148399	4.228064649340964	-0.6089441771422174	-496.6602831168619	-62.11199930251956	-40.62027352078208	-4.064571372352165	-1.907913175676909	-1.310401703244456	15.92753876645482	-2.292521049721794	5.19657227230087	-2.788880366127153	16.21483217662957	16.21483217662677	3.637487707117006	-1.051653064159146	5.557095650221591	0.5003903223755515	-1.309276718543447e-07	1.045794596055237e-06	3.630023654780753e-07	4.045216305239389e-07	-1.527004225330855e-06	-2.200243406608562e-07	1.602036387550583e-07
